<svg xmlns="http://www.w3.org/2000/svg" viewBox="0 0 542 50"><defs><style>.cls-1{fill-rule:evenodd;}</style></defs><g id="Layer_2" data-name="Layer 2"><g id="Layer_1-2" data-name="Layer 1"><path class="cls-1" d="M75.75,0a17.73,17.73,0,0,1,13,5.25c4.44,4.43,4.69,9.38,4.7,17.47v4.57c0,8.08-.26,13-4.7,17.46a17.73,17.73,0,0,1-13,5.25,17.59,17.59,0,0,1-12.92-5.25c-4.7-4.7-4.76-10-4.76-19V25c0-9.46-.07-14.92,4.76-19.75A17.59,17.59,0,0,1,75.75,0ZM195.07.42V32.67c0,6.56,4,10.63,10.16,10.63s10.22-4.07,10.22-10.63V.42h7.47V33c0,10.15-7.68,17-17.69,17s-17.62-6.84-17.62-17V.42ZM262.6,0c6.5,0,11.06,1.66,15.27,5.59l-4.76,4.7c-3-2.9-6.57-3.8-10.71-3.8-5.81,0-9,3.32-9,7.67a5.88,5.88,0,0,0,1.87,4.56A11.11,11.11,0,0,0,260.81,21l5.59.82c4.56.7,7.12,1.8,9.19,3.66,2.7,2.35,4,5.88,4,10.09,0,9-7.39,14.43-17.69,14.43-7.39,0-12.71-1.73-17.41-6.49l5-4.9c3.59,3.59,7.53,4.69,12.57,4.69,6.43,0,10.16-2.76,10.16-7.52a6.61,6.61,0,0,0-1.94-5.12c-1.24-1.17-2.48-1.66-5.38-2.07l-5.81-.83a16.8,16.8,0,0,1-9.32-3.93c-2.42-2.28-3.6-5.39-3.6-9.4C246.16,5.87,252.38,0,262.6,0ZM413.5,0a17.73,17.73,0,0,1,13,5.25c4.7,4.7,4.7,10,4.7,19V25c0,9.46.14,14.92-4.7,19.75a18.61,18.61,0,0,1-25.91,0c-4.7-4.7-4.76-10-4.76-19V25c0-9.46-.07-14.92,4.76-19.75A17.59,17.59,0,0,1,413.5,0ZM17.27.42C22.39.42,26.88,1.93,30,5c5.17,5.16,5,12.07,5,19V25.3h0v1.31c0,6.57-.15,13.52-5,18.35-3.1,3.11-7.59,4.63-12.71,4.63H0V.42Zm108.54,0L140.18,31,154.27.42h7.47V49.59h-7.47V16.71l-11.33,24h-5.52l-11.61-24V49.59h-7.47V.42Zm214.91,0L363.45,35V.42h7.46V49.59h-6.84L341.34,15v34.6h-7.46V.42Zm116.34,0,11.33,35.77L479.72.42h7.88L471.29,49.59h-5.8L449.32.42ZM524,.42l18,49.17h-8l-3.38-9.88H511.26l-3.39,9.88h-7.94L518,.42ZM75.75,6.7a10,10,0,0,0-7.32,3c-2.36,2.56-2.88,5.25-2.9,14.53V25c0,9.88.48,12.64,2.9,15.26a10.34,10.34,0,0,0,14.65,0C85.43,37.71,86,35,86,25.73V25c0-9.88-.48-12.64-2.9-15.26a10,10,0,0,0-7.33-3Zm337.75,0a10,10,0,0,0-7.32,3c-2.42,2.62-2.9,5.38-2.9,15.26s.48,12.64,2.9,15.26a10.34,10.34,0,0,0,14.65,0c2.35-2.55,2.87-5.25,2.9-14.53V25c0-9.88-.49-12.64-2.9-15.26a10,10,0,0,0-7.33-3Zm-397,.41h-9V42.89h9.05c3.53,0,6.29-1,8.36-3.32,2.47-2.73,2.62-7.77,2.63-14.2v-.71c0-6.77-.07-11.4-2.63-14.23C22.8,8.15,20,7.11,16.51,7.11Zm504.62,4.42-7.66,21.83H528.6l-7.47-21.83Z"/></g></g></svg>